<?xml version="1.0" encoding="utf-8"?>
<!-- Generator: Adobe Illustrator 21.0.2, SVG Export Plug-In . SVG Version: 6.00 Build 0)  -->
<svg version="1.1" id="koh_koh" xmlns="http://www.w3.org/2000/svg" xmlns:xlink="http://www.w3.org/1999/xlink" x="0px" y="0px"
	 viewBox="0 0 278 134" style="enable-background:new 0 0 278 134;" xml:space="preserve">
<style type="text/css">
	.st0{fill:#5B5145;}
	.st1{fill:#68543E;}
	.st2{fill:#FC275F;}
	.st3{fill:#0CEF88;}
	.st4{fill:#493E31;}
	.st5{fill:#CEBFAE;}
</style>
<title>boaty</title>
<g>
	<path class="st0" d="M13.3,25l59.4,91c0,0,102.7-7.8,136.1-16c33.4-7.4,37.3-12.1,37.3-12.1l10-7.4c0,0,6.5-6.1,0.9-10
		s-19.7-2-19.7-2s-58.5,11.3-114,4.3s-74.1-13-74.1-13S34,50.3,24.5,20.4c-5.2-0.9-6.9,0-6.9,0L13.3,25z"/>
	<path class="st1" d="M13.3,25l59.4,91l11.7-0.9L49.1,59.9c0,0-15.2-9.5-24.7-39.4c-5.2-0.9-6.9,0-6.9,0L13.3,25z"/>
	<path class="st2" d="M44.1,52.3l-1.3-1l-3.9-2.9L32,54c0,0-0.5,2.1,0.5,4l-12.2,57.5h3l9.5-53.7l-2.2,42.5h2.6l1.7-45.5L44.1,52.3z
		"/>
	<polygon class="st3" points="48,118.6 41.8,62.7 47.1,55.7 44.1,52.3 33.7,58.3 37.1,62.7 34.1,111.6 36.3,114.7 38.9,63.1 
		39,63.1 44.1,116.8 	"/>
	<path class="st4" d="M256,80c0,0,6.5-6.1,0.9-10s-19.7-2-19.7-2s-15.6,3-38.3,5c-21.3,1.8-48.8,2.7-75.6-0.6
		c-55.5-6.9-74.1-13-74.1-13s36.6,18.4,100.7,22.7S256,80,256,80z"/>
	<path class="st5" d="M40.6,59.2c0,0,68,21.2,98.4,23.8c30.3,2.6,91.6,1.5,110.1-2.6c19.7-4.4,8.2-12.6,8.2-12.6s-4.5-2-17.1-0.2
		c3.5,1.3,12.6-0.9,14.3,1.7c1.7,2.6,3.9,3.5-0.4,5.6c-4.3,2.2-16.5,9.5-66.7,7.4c-20.4-0.9-48.2-2.2-72.4-6.5
		c-35.8-6.4-70.8-20.1-70.8-20.1L40.6,59.2z"/>
</g>
</svg>
