<?xml version="1.0" encoding="utf-8"?>
<!-- Generator: Adobe Illustrator 21.0.2, SVG Export Plug-In . SVG Version: 6.00 Build 0)  -->
<svg version="1.1" id="koh_koh" xmlns="http://www.w3.org/2000/svg" xmlns:xlink="http://www.w3.org/1999/xlink" x="0px" y="0px"
	 viewBox="0 0 278 195.6" style="enable-background:new 0 0 278 195.6;" xml:space="preserve">
<style type="text/css">
	.st0{filter:url(#Adobe_OpacityMaskFilter);}
	.st1{fill:url(#SVGID_2_);}
	.st2{mask:url(#SVGID_1_);}
	.st3{fill:#5B5145;}
	.st4{fill:#68543E;}
	.st5{fill:#FC275F;}
	.st6{fill:#0CEF88;}
	.st7{fill:#493E31;}
	.st8{fill:#CEBFAE;}
</style>
<defs>
	<filter id="Adobe_OpacityMaskFilter" filterUnits="userSpaceOnUse" x="23.6" y="86" width="244.1" height="114.2">
		<feColorMatrix  type="matrix" values="1 0 0 0 0  0 1 0 0 0  0 0 1 0 0  0 0 0 1 0"/>
	</filter>
</defs>
<mask maskUnits="userSpaceOnUse" x="23.6" y="86" width="244.1" height="114.2" id="SVGID_1_">
	<g class="st0">
		<linearGradient id="SVGID_2_" gradientUnits="userSpaceOnUse" x1="146.3279" y1="192.4877" x2="93.3279" y2="-122.5123">
			<stop  offset="0.1397" style="stop-color:#F8F8F8;stop-opacity:0"/>
			<stop  offset="0.51" style="stop-color:#7E7C7D;stop-opacity:0.5267"/>
			<stop  offset="0.6519" style="stop-color:#000000"/>
		</linearGradient>
		<rect y="86" class="st1" width="278" height="126"/>
	</g>
</mask>
<g class="st2">
	<path class="st3" d="M38.7,200.1c0,0,1.8,0.6,6.8-1.3c3.7-31.1,16.9-43.3,16.9-43.3s17.1-9.4,70.4-26.6s112.8-17.1,112.8-17.1
		s14.2-0.8,19-5.6c4.8-4.9-2.8-9.7-2.8-9.7l-11.2-5.4c0,0-4.7-3.9-38.9-4.9C177.3,84.3,75,95.9,75,95.9L33.6,196.4L38.7,200.1z"/>
	<path class="st4" d="M38.6,200c0,0,1.8,0.6,6.8-1.3c3.7-31.1,16.9-43.3,16.9-43.3l24.4-60.8L75,95.9L33.6,196.4L38.6,200z"/>
	<path class="st5" d="M48.5,159.1l-10.2-44.4l-2.6,0.5l10.1,41.3l-19.4-51l-2.9,0.6l22.7,54.2c-0.6,2.1,0.3,4,0.3,4l7.8,4.2l3.3-3.6
		l1.1-1.2L48.5,159.1z"/>
	<polygon class="st6" points="46.7,100.4 51.8,154.2 51.7,154.2 39.5,104 37.9,107.4 50,154.9 47.4,159.9 58.8,163.8 61.1,159.9 
		54.6,154 50.2,97.9 	"/>
	<path class="st7" d="M157.1,114.7C95,131,62.5,155.9,62.5,155.9s17.1-9.5,70.4-26.6c25.7-8.3,52.9-12.5,74.2-14.7
		c22.7-2.3,38.6-2.3,38.6-2.3s14.2-0.8,19-5.6c4.8-4.9-2.8-9.7-2.8-9.7S219.3,98.5,157.1,114.7z"/>
	<path class="st8" d="M58.2,160.4c0,0,31.8-20,65.8-33c23-8.8,50-15.2,69.9-19.9c48.9-11.5,62.3-6.6,66.9-5.2
		c4.6,1.3,2.6,2.6,1.4,5.4s-10.5,2.4-13.7,4.3c12.7-0.6,16.8-3.4,16.8-3.4s9.8-10.2-10.4-10.8c-18.9-0.6-79.4,9.8-108.6,18
		c-29.4,8.2-92.2,41.8-92.2,41.8L58.2,160.4z"/>
</g>
<title>boaty</title>
<g>
	<path class="st3" d="M13.3,6l59.4,91c0,0,102.7-7.8,136.1-16c33.4-7.4,37.3-12.1,37.3-12.1l10-7.4c0,0,6.5-6.1,0.9-10
		s-19.7-2-19.7-2s-58.5,11.3-114,4.3s-74.1-13-74.1-13S34,31.3,24.5,1.4c-5.2-0.9-6.9,0-6.9,0L13.3,6z"/>
	<path class="st4" d="M13.3,6l59.4,91l11.7-0.9L49.1,40.9c0,0-15.2-9.5-24.7-39.4c-5.2-0.9-6.9,0-6.9,0L13.3,6z"/>
	<path class="st5" d="M44.1,33.3l-1.3-1l-3.9-2.9L32,35c0,0-0.5,2.1,0.5,4L20.3,96.5h3l9.5-53.7l-2.2,42.5h2.6l1.7-45.5L44.1,33.3z"
		/>
	<polygon class="st6" points="48,99.6 41.8,43.7 47.1,36.7 44.1,33.3 33.7,39.3 37.1,43.7 34.1,92.6 36.3,95.7 38.9,44.1 39,44.1 
		44.1,97.8 	"/>
	<path class="st7" d="M256,61c0,0,6.5-6.1,0.9-10s-19.7-2-19.7-2s-15.6,3-38.3,5c-21.3,1.8-48.8,2.7-75.6-0.6
		c-55.5-6.9-74.1-13-74.1-13s36.6,18.4,100.7,22.7S256,61,256,61z"/>
	<path class="st8" d="M40.6,40.2c0,0,68,21.2,98.4,23.8c30.3,2.6,91.6,1.5,110.1-2.6c19.7-4.4,8.2-12.6,8.2-12.6s-4.5-2-17.1-0.2
		c3.5,1.3,12.6-0.9,14.3,1.7s3.9,3.5-0.4,5.6c-4.3,2.2-16.5,9.5-66.7,7.4c-20.4-0.9-48.2-2.2-72.4-6.5
		c-35.8-6.4-70.8-20.1-70.8-20.1L40.6,40.2z"/>
</g>
</svg>
