<?xml version="1.0" encoding="utf-8"?>
<!-- Generator: Adobe Illustrator 21.0.2, SVG Export Plug-In . SVG Version: 6.00 Build 0)  -->
<svg version="1.1" id="Layer_1" xmlns="http://www.w3.org/2000/svg" xmlns:xlink="http://www.w3.org/1999/xlink" x="0px" y="0px"
	 viewBox="0 0 750 176" style="enable-background:new 0 0 750 176;" xml:space="preserve">
<style type="text/css">
	.st0{opacity:0.77;}
	.st1{filter:url(#Adobe_OpacityMaskFilter);}
	.st2{mask:url(#SVGID_1_);}
	.st3{fill:#FFFFFF;}
</style>
<g class="st0">
	<defs>
		<filter id="Adobe_OpacityMaskFilter" filterUnits="userSpaceOnUse" x="0" y="0" width="749.8" height="175.7">
			<feFlood  style="flood-color:white;flood-opacity:1" result="back"/>
			<feBlend  in="SourceGraphic" in2="back" mode="normal"/>
		</filter>
	</defs>
	<mask maskUnits="userSpaceOnUse" x="0" y="0" width="749.8" height="175.7" id="SVGID_1_">
		<g class="st1">
			
				<image style="overflow:visible;" width="755" height="181" xlink:href="589E9A5B6FBCE732.jpg"  transform="matrix(1 0 0 1 -3 -3)">
			</image>
		</g>
	</mask>
	<g class="st2">
		<path class="st3" d="M663.5,38.4C506.9,39.2,570.6,93,503,85.3c-40-35.9-84-96-145.6-60.6C297-32.7,223.2,26.2,219,38.4
			c-13.3,39-63.6,27.3-118.2,32.7c-54.7,5.4-156.4,61.8-62.5,75c22.8,3.2,105.9-31.1,156.8-14.8c50.8,16.3,156.2,77.4,151.8,20.8
			c-4.4-56.6-59.3-11,137-6.5c77.3,1.8,101.6-61.7,141.4-34.2s145.3,14.3,120.9-29.9C721.8,37.3,663.5,38.4,663.5,38.4z"/>
	</g>
</g>
</svg>
