<?xml version="1.0" encoding="utf-8"?>
<!-- Generator: Adobe Illustrator 21.0.2, SVG Export Plug-In . SVG Version: 6.00 Build 0)  -->
<svg version="1.1" id="koh_koh" xmlns="http://www.w3.org/2000/svg" xmlns:xlink="http://www.w3.org/1999/xlink" x="0px" y="0px"
	 viewBox="0 0 1440 1023" style="enable-background:new 0 0 1440 1023;" xml:space="preserve">
<style type="text/css">
	.st0{fill:#43753B;}
	.st1{fill:#2B4C3C;}
	.st2{fill:#244033;}
	.st3{fill:#1E362B;}
	.st4{opacity:0.5;}
	.st5{fill:url(#SVGID_1_);}
	.st6{fill:url(#SVGID_2_);}
	.st7{fill:url(#SVGID_3_);}
</style>
<title>Artboard 2</title>
<path class="st0" d="M955,525c0,0,60,46,90,33s79-19,104-16s41,3,54,0s82-24,103-24s64,17,77,0s12-75,12-75s-43-72-66-132
	s-61.4-173.1-107-168c-27,3-19,82-31,97s-48,32-69,29s-67-211-95-207s-29,99-45,105s-16,58-13,97s-1,200-2,209S955,525,955,525z"/>
<path class="st1" d="M1191,240c-12,15-48,32-69,29s-67-211-95-207c30,46,38,134,53,173c21,28,20,55,34,49
	C1146,277,1191,240,1191,240z"/>
<path class="st1" d="M1333,443c21,0,37,92,50,75s12-75,12-75s-43-72-66-132s-61.4-173.1-107-168c-14.5,1.6,55,63,61,142
	C1310,353.5,1323.3,443,1333,443z"/>
<path class="st1" d="M1045,558c30-13,79-19,104-16s41,3,54,0s82-24,103-24s64,17,77,0c4.4-5.7-78-14-134-4c-100,28-58-34-84-34
	C1124,532,1067,532,1045,558z"/>
<path class="st0" d="M162,514c0,0-19-26-10-53s200-174,220-174s31-54,61-33s64,71,88,123c14.5,31.5,81,75,81,90s28,80,8,88
	s-99,1-120,0s-100,4-135,8s-95,32-124,15s-44-24-71-24S162,514,162,514z"/>
<path class="st2" d="M602,467c0,15,28,80,8,88s-99,1-120,0s-100,4-135,8s-95,32-124,15s-44-24-71-24c36.6-8.7,58,5.6,102,6
	c61.7,0.6,147.8-11.6,205-25c34.1-3,91,18,117-3C581,480,602,461.7,602,467z"/>
<path class="st3" d="M539,416c1.6-19.9-41-56-18-39c6.8,14.7,24.9,32,42.2,47.8C583.1,442.9,537,441,539,416z"/>
<g class="st4">
	
		<linearGradient id="SVGID_1_" gradientUnits="userSpaceOnUse" x1="1165.8583" y1="-9.8405" x2="1165.8583" y2="499.34" gradientTransform="matrix(1 0 0 -1 0 1024)">
		<stop  offset="0" style="stop-color:#FFFFFF;stop-opacity:0"/>
		<stop  offset="0.21" style="stop-color:#F9FBF9;stop-opacity:3.000000e-02"/>
		<stop  offset="0.39" style="stop-color:#E8EEE7;stop-opacity:0.12"/>
		<stop  offset="0.56" style="stop-color:#CBD9C9;stop-opacity:0.28"/>
		<stop  offset="0.73" style="stop-color:#A2BB9E;stop-opacity:0.49"/>
		<stop  offset="0.89" style="stop-color:#6E9468;stop-opacity:0.77"/>
		<stop  offset="1" style="stop-color:#43753B"/>
	</linearGradient>
	<path class="st5" d="M1361.8,525.5c-4.1,0-8.1-0.3-12.2-0.9c-18.4,1.8-42.7,14.1-57.4,16.3c-12.7,1.9-44.4-1.2-70.1-4.1
		c-8.9,2.5-15.8,4.4-19.2,5.2c-13,3-29,3-54,0c-5.6-0.6-11.2-0.9-16.8-0.7c-12,3.2-29.7,5.1-48.2,5.3c-14.2,2.8-27.9,6.7-39,11.5
		c-13.8,6-72.2-24.2-90-33c-25.2,13.6-10.8,62-10.8,62s17.4,40.8,19.7,49.6s30.6,167.3,33.5,206.3s10.8,90.4,27.5,93.9
		s32.1,97.3,60.3,97s42.3-212.8,62.7-219s58.5,5.2,72.6,18.2s18.2,92.3,45.3,91.2c45.8-1.9,66.7-119.5,80.4-182.2
		s45.3-140.5,45.3-140.5s-7.8-57.5-23.2-72.3C1366.5,527.5,1364.3,526.3,1361.8,525.5z"/>
	
		<linearGradient id="SVGID_2_" gradientUnits="userSpaceOnUse" x1="1327.5522" y1="99.6762" x2="1327.5522" y2="496.2874" gradientTransform="matrix(1 0 0 -1 0 1024)">
		<stop  offset="0.51" style="stop-color:#FFFFFF;stop-opacity:0"/>
		<stop  offset="0.62" style="stop-color:#EFF1F0;stop-opacity:7.000000e-02"/>
		<stop  offset="0.75" style="stop-color:#C1C9C5;stop-opacity:0.28"/>
		<stop  offset="0.89" style="stop-color:#74867E;stop-opacity:0.63"/>
		<stop  offset="1" style="stop-color:#244033"/>
	</linearGradient>
	<path class="st6" d="M1330.3,611c20.8-3.2,22.7-96.5,38.1-81.7s23.2,72.3,23.2,72.3s-31.6,77.7-45.3,140.5s-34.6,180.4-80.4,182.2
		c-14.6,0.6,44.9-70.6,38.9-149.6C1321.1,703,1320.7,612.5,1330.3,611z"/>
	<path class="st1" d="M1378.7,520.1c-4.1,0-26.7-4-30.7-4.5c-18.4,1.8-27.2,0.6-41.9,2.4c-58,7-61.9,8.9-77.8,9.7
		c-8.9,2.5-21.9,13.5-25.2,14.3c-13,3-29,3-54,0c-5.6-0.6-11.2-0.9-16.8-0.7c-16-8.1-29.9-6.6-48.2,5.3c-9.7,1.9-19.2,4.4-28.6,7.5
		c28.7,8.5,68,13,103.2,45.8c25.7-3.9-25.2-58.9,77.9-46.3c55.5-12.5,137-19.2,131.9-24.2C1366.5,527.6,1381.1,520.8,1378.7,520.1z"
		/>
</g>
<g class="st4">
	
		<linearGradient id="SVGID_3_" gradientUnits="userSpaceOnUse" x1="382.8498" y1="154.7803" x2="382.8498" y2="470" gradientTransform="matrix(1 0 0 -1 0 1024)">
		<stop  offset="0" style="stop-color:#FFFFFF;stop-opacity:0"/>
		<stop  offset="0.21" style="stop-color:#F9FBF9;stop-opacity:3.000000e-02"/>
		<stop  offset="0.39" style="stop-color:#E8EEE7;stop-opacity:0.12"/>
		<stop  offset="0.56" style="stop-color:#CCD9CA;stop-opacity:0.27"/>
		<stop  offset="0.73" style="stop-color:#A3BC9F;stop-opacity:0.49"/>
		<stop  offset="0.89" style="stop-color:#70966A;stop-opacity:0.76"/>
		<stop  offset="1" style="stop-color:#43753B"/>
	</linearGradient>
	<path class="st7" d="M610,563.4c-20-8-99-1-120,0c-14.5,0.7-56.4-1.5-92.6-4.2c-16.3,1.2-31.5,2.6-42.4,3.8c-35,4-95,32-124,15
		c-15.1-8.8-26.4-15-37.5-18.8c-10.3,3.6-20.5-5.2-33.5-5.2c-27,0,2,50.4,2,50.4s-19,26-10,53s200,174,220,174s31,54,61,33
		s64-71,88-123c14.5-31.5,81-75,81-90S630,571.4,610,563.4z"/>
	<path class="st1" d="M193.5,559.2c-11.5-8-20.5-5.2-33.5-5.2c17.9,4.3,32.2,13.4,47.2,11C202.8,562.8,198.2,560.8,193.5,559.2z"/>
	<path class="st1" d="M617.2,537.8c-20-8-127.2,16.2-148.2,17.2c-14.5,0.7-54,3-71.6,4.2c-16.3,1.2-31.5,2.6-42.4,3.8
		c-1.6,0.2-3.2,0.4-4.9,0.7c41.8,4.7,84.1,12,116.9,19.7c34.1,3,91-18,117,3c-3,52,18,70.3,18,65C602,636.4,623,601.8,617.2,537.8z"
		/>
</g>
</svg>
