<?xml version="1.0" encoding="utf-8"?>
<!-- Generator: Adobe Illustrator 21.0.2, SVG Export Plug-In . SVG Version: 6.00 Build 0)  -->
<svg version="1.1" id="koh_koh" xmlns="http://www.w3.org/2000/svg" xmlns:xlink="http://www.w3.org/1999/xlink" x="0px" y="0px"
	 viewBox="0 0 1440 1023" style="enable-background:new 0 0 1440 1023;" xml:space="preserve">
<style type="text/css">
	.st0{opacity:0.83;fill:#769383;}
	.st1{opacity:0.48;fill:#769383;}
</style>
<title>sea</title>
<path class="st0" d="M1440,313.9V498H0.1l-0.6-89.8c25.6-5.1,38.1-31.2,54.5-46.6s125-76.5,151.1-61.5s59.1,45.6,109.7,53
	s102.8,61.4,102.8,61.4s18.2,26.7,60.8,36.4s51.4,25.3,51.4,25.3h144.8c0,0-1.4-40.6,19.6-50.8s63.1-27.8,75-39.8
	c0,0,87.5-99.7,102.5-87.7c15,12,87,54,117,54s54,43.2,72,45.6c18,2.4,75,38.4,111,26.4c36-12,96-37.8,147-26.4
	c51,11.4,42-60.6,60-75.6C1396.9,306.8,1440,313.9,1440,313.9z"/>
<path class="st1" d="M-0.5,313.9V498h1439.9l0.6-89.8c-25.6-5.1-38.1-31.2-54.5-46.6s-125-76.5-151.1-61.5
	c-26.1,14.9-59.1,45.6-109.7,53c-50.6,7.4-102.8,61.4-102.8,61.4s-18.2,26.7-60.8,36.4s-51.4,25.3-51.4,25.3H529.9
	c0,0-133.2-81.1-151.2-78.7c-18,2.4-75,38.4-111,26.4c-36-12-11.5-135.1-62.5-123.7c-51,11.4-122.4-50.3-140.4-65.3
	C46.8,219.8-0.5,313.9-0.5,313.9z"/>
</svg>
