<?xml version="1.0" encoding="utf-8"?>
<!-- Generator: Adobe Illustrator 21.0.2, SVG Export Plug-In . SVG Version: 6.00 Build 0)  -->
<svg version="1.1" id="Layer_1" xmlns="http://www.w3.org/2000/svg" xmlns:xlink="http://www.w3.org/1999/xlink" x="0px" y="0px"
	 viewBox="0 0 226.5 862.5" style="enable-background:new 0 0 226.5 862.5;" xml:space="preserve">
<style type="text/css">
	.st0{fill:#EF259D;}
	.st1{fill:#E0DCD5;}
	.st2{fill:#00011A;}
	.st3{fill:#33222D;}
	.st4{fill:#EDB426;}
	.st5{fill:none;stroke:#FFFFFF;stroke-miterlimit:10;}
	.st6{fill:#422D0F;}
	.st7{fill:#FFFFFF;}
	.st8{fill:#50600D;}
	.st9{fill:url(#SVGID_1_);}
	.st10{fill:#EDEDBE;}
	.st11{fill:#A2A52D;}
	.st12{fill:#779127;}
</style>
<path class="st0" d="M133.9,49.2c0,0-26.3-49.1-73.4-42.6c-45.7,6.6-46.7,32.5-46.7,32.5l5.2-0.7c0,0,1.4-3.5,8.7-2.4
	c7.3,1,4.8,4.8,4.8,4.8S45.3,45.4,46,52.3c5.2-0.7,3.1,7.3,6.2,13.2s14.2,28.4,37.4,27.7C112.8,92.4,129.4,77.5,133.9,49.2z"/>
<circle class="st1" cx="71.4" cy="32.4" r="7.8"/>
<circle class="st2" cx="71.4" cy="32.4" r="4.3"/>
<path class="st3" d="M46,52.3c5.2-0.7,3.1,7.3,6.2,13.2s14.2,28.4,37.4,27.7c23.2-0.7,39.8-15.6,44.3-43.9c0,0,6.2,20.1-16.6,40.8
	s-41.5,24.6-55.7,19c-4.2,9-6.6,13.8-6.6,13.8s6.9-6.2-2.8-14.5S35.6,93.1,35.6,93.1s16.6-9.3,15.6-17c-1-7.6-0.3-17.3-5.2-16.3
	S41.1,63,41.1,63S48.8,57.4,46,52.3z"/>
<path class="st4" d="M13.8,39.1l5.2-0.7c0,0,1.4-3.5,8.7-2.4c7.3,1,4.8,4.8,4.8,4.8S45.3,45.4,46,52.3c0,0-5.5,19-10.4,21.5
	c-4.8,2.4-8,0.3-8.3,4.8s-1,11.1,2.6,20.8c-6.1,6.2-25.4-22.1-20.6-38.8S13.8,39.1,13.8,39.1z"/>
<path class="st5" d="M89.6,93.1"/>
<path class="st6" d="M42.1,63.4c-1.9,4.6-4.3,9.2-6.5,10.3c-4.8,2.4-8,0.3-8.3,4.8v10.1l8.3,4.4c0,0,16.6-9.3,15.6-17
	c-1-7.6-0.3-17.3-5.2-16.3S41.1,63,41.1,63"/>
<circle class="st7" cx="73.8" cy="30" r="2.4"/>
<path class="st6" d="M21.8,39.3c-1.7,2.2,4.5,5.9,7.1,2.2S24.5,35.8,21.8,39.3z"/>
<path class="st8" d="M214.8,409.4c0,0-4.2-104.5-2.4-147.1s-18.3-75.1-18.3-75.1s-6.9-31.5-30.1-31.8s-20.4,14.9-20.4,30.1
	c-7.6,22.5-1,65.4,4.5,82s5.5,38.4,5.5,38.4s5.5,32.2,15.6,34.3c10,2.1,14.9,52.3,14.9,52.3s11.4,58.5,17.3,74.1
	c5.9,15.6,16.6,28.7,16.6,28.7L214.8,409.4z"/>
<linearGradient id="SVGID_1_" gradientUnits="userSpaceOnUse" x1="152.8419" y1="242.0002" x2="191.0644" y2="242.0002" gradientTransform="matrix(1 0 0 -1 0 864)">
	<stop  offset="0" style="stop-color:#1D3F77"/>
	<stop  offset="1" style="stop-color:#93A032"/>
</linearGradient>
<path class="st9" d="M185.1,429.8c0,0-11.8,18.3-17.3,86.2c-5.5,67.8-16.6,157.1-11.1,195.5s18.2,150.5,13.4,150.9
	c-4.8,0.3-15.9-151.6-16.9-174.1s0-144.7,4.2-178.6s13.7-110.3,13.1-123.5s13.5,6.2,13.5,6.2l7,34
	C191.1,426.4,185.1,422.9,185.1,429.8z"/>
<path class="st10" d="M127,457.9c-1.4,34.6-3.3,38.1,0.1,47.8s4.1,20.8,13.1,21.5c9,0.7,28-108.6,28-108.6l-1.8,17
	c-2.9,26.2-6.7,56.2-8.9,74.3c-4.2,33.9-5.2,156.1-4.2,178.6s21.6,173.2,16.9,174.1c-17.3,3.1-16.4-112.1-22-150.5l-13.6-74.7
	c0,0-9.1,1-9.4-15.1C124.9,606,127,457.9,127,457.9z"/>
<path class="st11" d="M168.1,418.5"/>
<path class="st11" d="M168.1,418.5"/>
<path class="st12" d="M168.1,418.5c0,0-19,109.2-28,108.6c-9-0.7-9.7-11.8-13.1-21.5s-1.5-13.2-0.1-47.8
	c1.4-34.6-12.5-65.4-12.5-65.4c3.1-33.9-25.5-51.7-25.5-51.7L64.5,339c0,0-3.3-26.8-11.2-41.4s-5.2-43.6-5.2-57.4s4.8-20.4,7.3-29.1
	c2.4-8.7,3.5-28.7-0.3-47.8c-3.8-19,0-40.5,0-40.5s2.4-4.8,6.6-13.8c14.2,5.5,32.9,1.7,55.7-19S134,49.2,134,49.2
	c11.4,6.2,25.6,38.8,29.4,57.8c3.8,19,30.8,80.3,30.8,80.3s-6.9-31.5-30.1-31.8s-20.4,14.9-20.4,30.1c-7.6,22.5-1,65.4,4.5,82
	s5.5,38.4,5.5,38.4s5.5,32.2,15.6,34.3c10,2.1,14.9,52.3,14.9,52.3L168.1,418.5z"/>
<path class="st6" d="M107.7,352.7c0,0-16.6-5.7-19.2,8.3s-8.8,10.4-8.8,10.4s-7.3,5.2,0,13c-8.8-5.2-7.3-19.2-7.3-19.2
	s-2.4-29.8,16.4-27.3S107.7,352.7,107.7,352.7z"/>
<path class="st6" d="M108.6,363.2c0,0-8.6,8-14.3,4.3c-5.7-3.6-5.7-3.6-5.7-3.6s-2,3.3,3.5,8.4s12.1,7.4,21.2,0.6L108.6,363.2z"/>
<path class="st6" d="M78.5,340l-14-1c0,0-6-1.4-7.1,4.6C54.5,359,47.6,355,47.6,355s-8,5.7,0,14.3c-9.7-5.7-8-21.1-8-21.1
	s-2.7-32.7,18.1-30.1C78.5,320.7,78.5,340,78.5,340z"/>
<path class="st6" d="M57.9,363.9c-2.1,0.6-4.2,0.6-6.2-0.5c-6.9-3.8-6.9-3.8-6.9-3.8s-2.1,3.9,4.6,9.5s12.9,4.7,23-3.9L57.9,363.9z"
	/>
</svg>
