<?xml version="1.0" encoding="utf-8"?>
<!-- Generator: Adobe Illustrator 21.0.2, SVG Export Plug-In . SVG Version: 6.00 Build 0)  -->
<svg version="1.1" id="koh_koh" xmlns="http://www.w3.org/2000/svg" xmlns:xlink="http://www.w3.org/1999/xlink" x="0px" y="0px"
	 viewBox="0 0 1440 1023" style="enable-background:new 0 0 1440 1023;" xml:space="preserve">
<style type="text/css">
	.st0{fill:none;}
	.st1{fill:#C4F7F7;}
	.st2{fill:#80B7B6;}
</style>
<rect class="st0" width="1440" height="1023"/>
<title>sea</title>
<path class="st1" d="M0,651v372h1440V498H0V651z"/>
<path class="st2" d="M0,498h1440v65.6c-53,12.4-82-27.6-124-32.6c-48-5.7-71.4,40.4-141,39c-51-1-101.4,30.4-150,24
	c-28.6-3.8-52.2-29.9-70-34c-48-11-159-4-195-3s-135,14-165,15s-113.6-15.4-168.3-8.7S316,594,265,595S91,541,70,548
	S0,563.3,0,563.3V498z"/>
</svg>
