<?xml version="1.0" encoding="utf-8"?>
<!-- Generator: Adobe Illustrator 21.0.2, SVG Export Plug-In . SVG Version: 6.00 Build 0)  -->
<svg version="1.1" id="koh_koh" xmlns="http://www.w3.org/2000/svg" xmlns:xlink="http://www.w3.org/1999/xlink" x="0px" y="0px"
	 viewBox="0 0 626 1259" style="enable-background:new 0 0 626 1259;" xml:space="preserve">
<style type="text/css">
	.st0{fill:#99BC3B;}
	.st1{fill:#51473D;}
</style>
<title>sea</title>
<g>
	<path class="st0" d="M377.6,397.4c7.8,2.9,34.3-2.9,57.1-8.9c5.5-1.5,14.8-65.8,14.8-65.8l21.9,55.4c0,0,202.5-21.1,179.7-60.3
		c-8.8-15-26.4-27.9-49.4-38.5c-3.7-1.7-7.6-3.3-11.5-5c-1.8-0.7-18,35-18,35s7.5-39,5-39.9c-33.5-11.7-73.9-19.8-114-24.4
		c-6.4-0.7-12.5-1.2-18.3-1.6c-2.1-0.2-12.3,46.2-12.3,46.2s-8.6-46.8-15-46.5c-45.8,2-61.4,16.5-61.4,16.5s-31.9,42.4-22.8,82.2
		C348.9,364,377.6,397.4,377.6,397.4z"/>
	<path class="st1" d="M294.5,352.5c0,0,80.7-54.2,156-50.6s179.7,19,179.7,19s-144-12.3-179.7-10.8c-70.7,3-138.9,45.5-151.1,50.4
		C289.5,360.7,294.5,352.5,294.5,352.5z"/>
</g>
<g>
	<path class="st0" d="M357.7,287.7c11.1-10.8,33.9-79.6,33.9-79.6s3.4-19.6,5.7-46.1c0.2-2.6-46.9-15.9-46.9-15.9s47.9,2.4,48.1-0.4
		c2.5-40.4,1.4-89.7-15.7-112.9c-16.8,10.9-40.9,27.5-67.5,56.8c-0.9,1,22.3,25,22.3,25s-26.3-20.6-27-19.7
		c-13.1,15-26.7,33.2-40.4,55.3c-7.9,12.7-14.4,23.2-19.9,32.2c-2.3,3.8,30.3,40.2,30.3,40.2s-39.2-25-40.4-22.9
		c-4.1,7.2-7,13.1-8.8,18.3c-5.1,14.1-3.1,23.6,3.6,40.1c13.4,33.1,2.5,35,46.1,57.9C307.5,311.3,357.7,287.7,357.7,287.7z"/>
	<path class="st1" d="M281.6,343.6c0,0-6.3-76,7.8-111.4c27.9-70.1,91.8-192.3,91.8-192.3s-73.8,161.7-84.4,195.8
		c-11.6,37.3-5.1,93.7-5.9,106.8C286.8,351.7,281.6,343.6,281.6,343.6z"/>
</g>
<path class="st0" d="M269.6,341.1l-2.7-36c-3.2-6.2-31.2-40.4-59-74.4c-1.9-2.4-4.5,21.2-4.5,21.2s-4-32.4-6.4-35.4
	c-20.5-25.2-37.1-41.5-49.1-51.7c-66.5-56.4-64.2-74.4-87.8-97.5s-35.2,15.5-28,77.6c0.9,7.5,2.5,15.4,4.6,23.7
	c1.6,5.7,90.6,22.6,90.6,22.6s-79.8,8.1-78.7,10.7c18.6,42.7,51.1,91.1,93.5,140.9c3.3,3.9,79.1-38.2,79.1-38.2
	s-65.5,53.8-63.7,55.8c5.9,6.7,12,13.3,18.3,19.9C252.6,389.1,269.6,341.1,269.6,341.1z"/>
<path class="st1" d="M286.7,359.9c-2-8.5-36.5-43.9-52.3-58.9c-15.8-15.1-83.9-100.3-110.1-134.4s-56.2-77-56.2-77
	s34.3,55.5,66,99.9s78.1,109,93.8,123c15.7,14,42.7,56.7,50.8,52.1C286.7,359.9,286.7,359.9,286.7,359.9z"/>
<g>
	<g>
		<path class="st1" d="M263.2,359.8c-0.2,0.5-0.6,1-0.8,1.5c3.6,0,5.9,0,5.9,0S266.1,360.7,263.2,359.8z"/>
		<path class="st1" d="M275.9,355.6c0,0,7,0.3,18.5-3.9l0,0c0,0-2.8-17.9-21-8.5c-1.9,2.6-4,5.8-6.2,9.5
			C272.3,354.2,275.9,355.6,275.9,355.6z"/>
	</g>
	<path class="st1" d="M279.7,346.6c-13.8,5.2-9.1,18.5-4.5,39.2c4.5,20.7,12.6,111.9,12.6,111.9s3.5-50.9,3.6-67.8
		s0.3-50.8-0.7-63.6C289.7,353.6,279.7,346.6,279.7,346.6z"/>
</g>
<path class="st0" d="M363.9,349.8c0,0-34.4-16.6-54.5-5.1c-20.2,11.6-33.4,11-33.4,11s-32.2-12.4-40.2-5.6
	c-1.4,1.3,32.5,11.2,32.5,11.2s-44.1-0.1-47.3,3c-10.5,10.4-22,22.1-22,22.1s2.7,41.3,19.7,66.7c2.9,4.3,54.3-41.8,54.3-41.8
	s-36.4,58.4-31.6,59.7c37.6,10.3,46.5,26.8,46.5,26.8s34.6-23.7,55.3-37.8c7.6-5.2,13.7-17.5,18.2-31c1.2-3.6-66.5-45.6-66.5-45.6
	s71.4,40.2,72.3,35.9c3.3-14.4,5.6-40.2,5.6-40.2L363.9,349.8z"/>
</svg>
