<?xml version="1.0" encoding="utf-8"?>
<!-- Generator: Adobe Illustrator 21.0.2, SVG Export Plug-In . SVG Version: 6.00 Build 0)  -->
<svg version="1.1" id="koh_koh" xmlns="http://www.w3.org/2000/svg" xmlns:xlink="http://www.w3.org/1999/xlink" x="0px" y="0px"
	 viewBox="0 0 626 557" style="enable-background:new 0 0 626 557;" xml:space="preserve">
<style type="text/css">
	.st0{fill:#99BC3B;}
	.st1{fill:#51473D;}
</style>
<title>sea</title>
<g>
	<path class="st0" d="M482.7,277c7.5-3.6,21.9-26.6,33.5-47.1c2.8-5-36.8-56.5-36.8-56.5l55,23c0,0,126.3-159.7,82.3-170.8
		c-16.9-4.2-38.4-0.6-62,8.5c-3.8,1.5-7.7,3.1-11.6,4.8c-1.8,0.8,12.5,37.3,12.5,37.3s-22.7-32.6-25.1-31.4
		c-31.8,15.8-65.8,39.1-97,64.6c-5,4.1-9.6,8.1-13.9,12c-1.6,1.4,24.5,41.1,24.5,41.1s-39.5-26.5-43.8-21.7
		c-30.6,34.2-31.1,55.5-31.1,55.5s8.1,52.5,43,73.7C438.8,274.2,482.7,277,482.7,277z"/>
	<path class="st1" d="M392.6,305.1c0,0,17.5-95.6,72.7-147S604.4,42.7,604.4,42.7s-109.3,94.5-133.2,121.1
		C424,216.5,406.8,295,401.8,307.2C394.9,314.4,392.6,305.1,392.6,305.1z"/>
</g>
<g>
	<path class="st0" d="M390.3,214.6c0-15.5-33.3-79.8-33.3-79.8s-11.7-16.1-29-36.3c-1.7-2-44.1,22.5-44.1,22.5s35.2-32.6,33.3-34.7
		c-27.2-30-63.3-63.6-91.8-67.6c-3.9,19.6-8.9,48.5-6.5,88c0.1,1.3,33.5,1.5,33.5,1.5s-33.1,4.5-33,5.6c1.6,19.9,5.1,42.3,11.4,67.5
		c3.6,14.5,6.6,26.5,9.2,36.7c1.1,4.3,49.9,6.4,49.9,6.4s-45.3,10.6-44.6,13c2.3,7.9,4.5,14.1,7,19.1c6.5,13.5,14.7,18.7,31.2,25.4
		c33.1,13.5,26.8,22.6,73.6,7.4C372.1,267,390.3,214.6,390.3,214.6z"/>
	<path class="st1" d="M377.2,308.1c0,0-58.8-48.5-74.3-83.3c-30.7-68.9-73.6-200-73.6-200s64.3,165.7,81.3,197.1
		c18.6,34.3,63.5,69.1,72.4,78.8C386.6,310,377.2,308.1,377.2,308.1z"/>
</g>
<path class="st0" d="M367,315l-27.7-23.2c-6.7-2-50.7-5.8-94.4-9.7c-3-0.3,12,18,12,18s-26-19.8-29.8-20.1
	c-32.4-2.9-55.6-2.4-71.3-0.9c-86.8,8.3-98.1-6-131.1-5.2s-13.5,36,36,74.2c6,4.6,12.8,9,20.2,13.2c5.2,2.9,79.4-49.1,79.4-49.1
	S110.4,375,113,376c43.5,16.5,100.9,27,166.2,31.4c5.1,0.3,27.9-83.3,27.9-83.3s-7.2,84.4-4.5,84.6c8.9,0.4,17.9,0.7,27,0.8
	C389.5,360.7,367,315,367,315z"/>
<path class="st1" d="M392.4,315.8c-7.5-4.5-56.9-4.5-78.7-3.7s-130.4-10-173.1-15s-94.4-13.5-94.4-13.5s63.7,14.2,117.6,22.5
	s132.6,20.2,153.6,18.7s70.4,9,72.7,0C392.4,315.8,392.4,315.8,392.4,315.8z"/>
<g>
	<g>
		<path class="st1" d="M375.9,332.6c0.2,0.5,0.3,1.1,0.5,1.6c2.5-2.6,4.1-4.2,4.1-4.2S378.6,331.1,375.9,332.6z"/>
		<path class="st1" d="M381.8,320.6c0,0,5.1-4.8,10.1-16l0,0c0,0-14.8-10.5-20.8,9.1c0.5,3.2,1.4,6.9,2.5,11.1
			C378.3,322.2,381.8,320.6,381.8,320.6z"/>
		<path class="st1" d="M473.4,412.1c-8.4,1.8-19.5,5.7-33.2,13.7c-4.3,2.5-20.7-64.3-20.7-64.3s-1.6,37.8-4.5,57
			c28.7,49,71.5,102.8,128.8,138.4H626v-41.1C563.8,502,512.3,457,473.4,412.1z"/>
	</g>
	<path class="st1" d="M378,311.6c-5.9,13.5,6.9,19.4,24.9,30.6s88.9,69.1,88.9,69.1s-34-38-46-49.9s-36.2-35.7-46-43.9
		S378,311.6,378,311.6z"/>
</g>
<path class="st0" d="M439.1,253.5c0,0-35.9,13-41.7,35.5c-5.8,22.5-15.5,31.6-15.5,31.6s-31.4,14.4-32.1,24.9
	c-0.1,1.9,30.7-15.5,30.7-15.5s-30.9,31.5-30.9,36c0.1,14.8,0.5,31.2,0.5,31.2s31.5,26.9,61.5,32.4c5.1,0.9,8-68.1,8-68.1
	s16.4,66.8,20.7,64.3c33.6-19.7,51.6-14.6,51.6-14.6s7.2-41.3,11.5-66c1.6-9.1-3-22-9.5-34.7c-1.7-3.4-79.1,15.8-79.1,15.8
	s78.6-23.1,76.2-26.7c-8-12.4-24.9-32.1-24.9-32.1L439.1,253.5z"/>
</svg>
